<?xml version="1.0" encoding="UTF-8" standalone="no"?>
<!DOCTYPE svg PUBLIC "-//W3C//DTD SVG 1.1//EN" "http://www.w3.org/Graphics/SVG/1.1/DTD/svg11.dtd">
<svg version="1.1" xmlns="http://www.w3.org/2000/svg" xmlns:xlink="http://www.w3.org/1999/xlink" preserveAspectRatio="xMidYMid meet" viewBox="0 0 640 640" width="640" height="640"><defs><path d="M121.85 399.72C147.56 399.72 161.85 399.72 164.71 399.72C163.4 409.24 160.04 416.21 154.94 421.11C148.67 427.04 138.9 433.53 121.85 433.53C95.46 433.53 74.83 413.38 74.83 388.4C74.83 363.43 95.46 343.28 121.85 343.28C136.06 343.28 146.48 348.59 154.14 355.42C155.4 354.23 165.49 344.68 166.75 343.48C156.11 333.69 141.82 326.23 121.85 326.23C85.69 326.23 55.29 354.11 55.29 388.33C55.29 422.56 85.69 450.43 121.85 450.43C141.38 450.43 156.11 444.36 167.63 433.05C179.43 421.87 183.15 406.07 183.15 393.37C183.15 389.44 182.86 385.78 182.2 382.75C178.18 382.75 158.06 382.75 121.85 382.75L121.85 399.72Z" id="c1Apz6iQSz"></path><path d="M194.23 409.03C194.23 432.08 213.33 449.12 236.73 449.12C260.13 449.12 279.23 432.15 279.23 409.03C279.23 385.78 260.13 368.95 236.73 368.95C213.33 368.95 194.23 385.78 194.23 409.03ZM212.82 409.03C212.82 394.61 223.9 384.75 236.73 384.75C249.56 384.75 260.64 394.61 260.64 409.03C260.64 423.32 249.56 433.32 236.73 433.32C223.9 433.32 212.82 423.32 212.82 409.03Z" id="a200Q3lmSW"></path><path d="M444.42 377.92C440.26 373.22 432.25 368.95 422.11 368.95C400.97 368.95 382.53 386.4 382.53 409.03C382.53 431.53 400.97 449.12 422.11 449.12C432.25 449.12 440.26 444.84 444.42 440.01C444.46 440.01 444.68 440.01 445.08 440.01C445.08 443.37 445.08 445.23 445.08 445.6C445.08 460.92 436.4 469.13 422.48 469.13C411.1 469.13 404.03 461.4 401.12 454.85C399.5 455.48 386.55 460.56 384.93 461.2C389.6 471.82 401.92 484.86 422.48 484.86C444.27 484.86 462.72 472.72 462.72 443.12C462.72 438.31 462.72 414.28 462.72 371.02L445.08 371.02L445.08 377.92C444.68 377.92 444.46 377.92 444.42 377.92ZM401.12 409.03C401.12 394.89 410.89 384.75 423.72 384.75C436.4 384.75 446.31 395.1 446.31 409.17C446.39 423.18 436.4 433.32 423.72 433.32C410.89 433.32 401.12 422.97 401.12 409.03Z" id="b1chBaNKj0"></path><path d="M289 409.03C289 432.08 308.1 449.12 331.5 449.12C354.9 449.12 374 432.15 374 409.03C374 385.78 354.9 368.95 331.5 368.95C308.1 368.95 289 385.78 289 409.03ZM307.59 409.03C307.59 394.61 318.67 384.75 331.5 384.75C344.33 384.75 355.41 394.61 355.41 409.03C355.41 423.32 344.33 433.32 331.5 433.32C318.67 433.32 307.59 423.32 307.59 409.03Z" id="h5t3m03Ksj"></path><path d="M477.3 327.89L495.59 327.89L495.59 449.12L477.3 449.12L477.3 327.89Z" id="a6LNqYznU5"></path><path d="M531.53 421.18C535.31 419.7 554.19 412.32 588.17 399.03C587.04 396.3 586.41 394.78 586.28 394.48C582.78 385.51 571.99 368.95 550.05 368.95C528.25 368.95 510.1 385.16 510.1 409.03C510.1 431.53 528.03 449.12 552.09 449.12C571.48 449.12 582.71 437.88 587.37 431.39C585.93 430.48 574.38 423.19 572.94 422.28C568.13 428.91 561.57 433.32 552.09 433.32C542.61 433.32 535.91 429.25 531.53 421.18ZM566.82 392.82C562.99 394.32 532.37 406.29 528.54 407.79C528.54 390.96 541.16 383.99 550.78 383.99C558.29 383.99 564.7 387.64 566.82 392.82Z" id="acII7aN3s"></path><path d="M432.66 278.06L467.88 312.02L503.09 278.06L552.96 278.06L552.96 229.97L588.17 196.01L552.96 162.05L552.96 113.96L503.09 113.96L467.88 80L432.66 113.96L382.79 113.96L382.79 162.05L347.58 196.01L382.79 229.97L382.79 278.06L432.66 278.06Z" id="a2cK0yFNX2"></path><path d="M471.71 159.67L471.58 160.2L455.27 229.57L454.72 232.21L464.86 232.21L465 231.68L481.3 162.32L481.85 159.67L471.71 159.67ZM445.82 169.19L444.45 170.11L414.99 192.18L413.07 193.63L413.07 198.12L414.99 199.58L444.45 221.64L445.82 222.57L445.82 210.68L425.95 196.01L445.82 181.08L445.82 169.19ZM489.94 169.19L489.94 181.08L509.8 196.01L489.94 210.94L489.94 222.83L491.31 221.91L520.76 199.84L522.68 198.39L522.68 193.89L520.76 192.44L491.17 170.24L489.94 169.19Z" id="c1OJyuDg32"></path><path d="M467.88 118.45C423.46 118.45 387.45 153.17 387.45 196.01C387.45 238.84 423.46 273.57 467.88 273.57C512.29 273.57 548.3 238.84 548.3 196.01C548.3 153.17 512.29 118.45 467.88 118.45Z" id="c3u6pj0BO"></path><path d="M55.29 249.67C55.32 219.26 78.51 194.63 107.08 194.66C135.62 194.7 158.75 219.34 158.75 249.73C158.72 280.16 135.54 304.81 106.96 304.81C78.39 304.77 55.26 280.09 55.29 249.67Z" id="fjkV5sD9h"></path><path d="M179.61 249.67C179.65 219.26 202.83 194.63 231.4 194.66C259.95 194.7 283.07 219.34 283.07 249.73C283.04 280.16 259.86 304.81 231.29 304.81C202.72 304.77 179.58 280.09 179.61 249.67Z" id="a8VYv67XW"></path><path d="M117.42 135.07C117.42 104.66 140.58 80 169.15 80C197.72 80 220.88 104.66 220.88 135.07C220.91 165.45 197.81 190.11 169.27 190.14C169.23 190.14 169.19 190.14 169.15 190.14C140.58 190.14 117.42 165.49 117.42 135.07Z" id="l2WLm0nwcI"></path></defs><g><g><g><use xlink:href="#c1Apz6iQSz" opacity="1" fill="#4285f4" fill-opacity="1"></use><g><use xlink:href="#c1Apz6iQSz" opacity="1" fill-opacity="0" stroke="#000000" stroke-width="1" stroke-opacity="0"></use></g></g><g><use xlink:href="#a200Q3lmSW" opacity="1" fill="#ea4335" fill-opacity="1"></use><g><use xlink:href="#a200Q3lmSW" opacity="1" fill-opacity="0" stroke="#000000" stroke-width="1" stroke-opacity="0"></use></g></g><g><use xlink:href="#b1chBaNKj0" opacity="1" fill="#4285f4" fill-opacity="1"></use><g><use xlink:href="#b1chBaNKj0" opacity="1" fill-opacity="0" stroke="#000000" stroke-width="1" stroke-opacity="0"></use></g></g><g><use xlink:href="#h5t3m03Ksj" opacity="1" fill="#fbbc05" fill-opacity="1"></use><g><use xlink:href="#h5t3m03Ksj" opacity="1" fill-opacity="0" stroke="#000000" stroke-width="1" stroke-opacity="0"></use></g></g><g><use xlink:href="#a6LNqYznU5" opacity="1" fill="#34a853" fill-opacity="1"></use><g><use xlink:href="#a6LNqYznU5" opacity="1" fill-opacity="0" stroke="#000000" stroke-width="1" stroke-opacity="0"></use></g></g><g><use xlink:href="#acII7aN3s" opacity="1" fill="#ea4335" fill-opacity="1"></use><g><use xlink:href="#acII7aN3s" opacity="1" fill-opacity="0" stroke="#000000" stroke-width="1" stroke-opacity="0"></use></g></g><g><use xlink:href="#a2cK0yFNX2" opacity="1" fill="#fbbc05" fill-opacity="1"></use><g><use xlink:href="#a2cK0yFNX2" opacity="1" fill-opacity="0" stroke="#000000" stroke-width="1" stroke-opacity="0"></use></g></g><g><use xlink:href="#c1OJyuDg32" opacity="1" fill="#ffffff" fill-opacity="1"></use><g><use xlink:href="#c1OJyuDg32" opacity="1" fill-opacity="0" stroke="#000000" stroke-width="1" stroke-opacity="0"></use></g></g><g><use xlink:href="#c3u6pj0BO" opacity="1" fill="#000000" fill-opacity="0"></use><g><use xlink:href="#c3u6pj0BO" opacity="1" fill-opacity="0" stroke="#ffffff" stroke-width="8" stroke-opacity="1"></use></g></g><g><use xlink:href="#fjkV5sD9h" opacity="1" fill="#ca3c32" fill-opacity="1"></use><g><use xlink:href="#fjkV5sD9h" opacity="1" fill-opacity="0" stroke="#000000" stroke-width="1" stroke-opacity="0"></use></g></g><g><use xlink:href="#a8VYv67XW" opacity="1" fill="#9259a3" fill-opacity="1"></use><g><use xlink:href="#a8VYv67XW" opacity="1" fill-opacity="0" stroke="#000000" stroke-width="1" stroke-opacity="0"></use></g></g><g><use xlink:href="#l2WLm0nwcI" opacity="1" fill="#399746" fill-opacity="1"></use><g><use xlink:href="#l2WLm0nwcI" opacity="1" fill-opacity="0" stroke="#000000" stroke-width="1" stroke-opacity="0"></use></g></g></g></g></svg>